<mxfile host="app.diagrams.net" agent="Mozilla/5.0 (Windows NT 10.0; Win64; x64) AppleWebKit/537.36 (KHTML, like Gecko) Chrome/133.0.0.0 Safari/537.36" version="26.0.15">
  <diagram name="Page-1" id="Q-4Uzgtc14UV0sB4zwts">
    <mxGraphModel dx="2146" dy="2642" grid="1" gridSize="10" guides="1" tooltips="1" connect="1" arrows="1" fold="1" page="1" pageScale="1" pageWidth="850" pageHeight="1100" math="0" shadow="0">
      <root>
        <mxCell id="0" />
        <mxCell id="1" parent="0" />
        <mxCell id="Un5pVBV7CyqhJL8YF-09-51" value="" style="rounded=0;whiteSpace=wrap;html=1;" vertex="1" parent="1">
          <mxGeometry x="620" y="5" width="220" height="330" as="geometry" />
        </mxCell>
        <mxCell id="Un5pVBV7CyqhJL8YF-09-49" value="" style="rounded=0;whiteSpace=wrap;html=1;" vertex="1" parent="1">
          <mxGeometry x="50" y="37.5" width="190" height="420" as="geometry" />
        </mxCell>
        <mxCell id="Un5pVBV7CyqhJL8YF-09-2" value="&lt;span style=&quot;color: rgba(0, 0, 0, 0); font-family: monospace; font-size: 0px; text-align: start; text-wrap-mode: nowrap;&quot;&gt;%3CmxGraphModel%3E%3Croot%3E%3CmxCell%20id%3D%220%22%2F%3E%3CmxCell%20id%3D%221%22%20parent%3D%220%22%2F%3E%3CmxCell%20id%3D%222%22%20value%3D%22%26lt%3Bdiv%26gt%3BHTML%26lt%3B%2Fdiv%26gt%3B%26lt%3Bdiv%26gt%3BReact%26lt%3Bbr%26gt%3BTypeScript%26lt%3B%2Fdiv%26gt%3B%26lt%3Bdiv%26gt%3BNext.js%26lt%3B%2Fdiv%26gt%3B%22%20style%3D%22rounded%3D0%3BwhiteSpace%3Dwrap%3Bhtml%3D1%3B%22%20vertex%3D%221%22%20parent%3D%221%22%3E%3CmxGeometry%20x%3D%22195%22%20y%3D%22265%22%20width%3D%22120%22%20height%3D%2260%22%20as%3D%22geometry%22%2F%3E%3C%2FmxCell%3E%3C%2Froot%3E%3C%2FmxGraphModel%3E3CmxGraphModel%3E%3Croot%3E%3CmxCell%20id%3D%220%22%2F%3E%3CmxCell%20id%3D%221%22%20parent%3D%220%22%2F%3E%3CmxCell%20id%3D%222%22%20value%3D%22%26lt%3Bdiv%26gt%3BHTML%26lt%3B%2Fdiv%26gt%3B%26lt%3Bdiv%26gt%3BReact%26lt%3Bbr%26gt%3BTypeScript%26lt%3B%2Fdiv%26gt%3B%26lt%3Bdiv%26gt%3BNext.js%26lt%3B%2Fdiv%26gt%3B%22%20style%3D%22rounded%3D0%3BwhiteSpace%3Dwrap%3Bhtml%3D1%3B%22%20vertex%3D%221%22%20parent%3D%221%22%3E%3CmxGeometry%20x%3D%22195%22%20y%3D%22265%22%20width%3D%22120%22%20height%3D%2260%22%20as%3D%22geometry%22%2F%3E%3C%2FmxCell%3E%3C%2Froot%3E%3C%2FmxGraphModel%3E&lt;/span&gt;" style="rounded=0;whiteSpace=wrap;html=1;" vertex="1" parent="1">
          <mxGeometry x="85" y="82.5" width="125" height="315" as="geometry" />
        </mxCell>
        <mxCell id="Un5pVBV7CyqhJL8YF-09-7" value="" style="edgeStyle=orthogonalEdgeStyle;rounded=0;orthogonalLoop=1;jettySize=auto;html=1;" edge="1" parent="1" target="Un5pVBV7CyqhJL8YF-09-2">
          <mxGeometry relative="1" as="geometry">
            <mxPoint x="-2.2737367544323206e-13" y="237.57142857142867" as="sourcePoint" />
          </mxGeometry>
        </mxCell>
        <mxCell id="Un5pVBV7CyqhJL8YF-09-12" value="HTTPS" style="text;html=1;align=center;verticalAlign=middle;resizable=0;points=[];autosize=1;strokeColor=none;fillColor=none;" vertex="1" parent="1">
          <mxGeometry x="290" y="110" width="60" height="30" as="geometry" />
        </mxCell>
        <mxCell id="Un5pVBV7CyqhJL8YF-09-13" value="View(Frontend)" style="text;html=1;align=center;verticalAlign=middle;resizable=0;points=[];autosize=1;strokeColor=none;fillColor=none;" vertex="1" parent="1">
          <mxGeometry x="90" y="52.5" width="110" height="30" as="geometry" />
        </mxCell>
        <mxCell id="Un5pVBV7CyqhJL8YF-09-14" value="&lt;div&gt;HTML&lt;/div&gt;&lt;div&gt;React&lt;br&gt;TypeScript&lt;/div&gt;&lt;div&gt;Next.js&lt;/div&gt;" style="text;html=1;align=center;verticalAlign=middle;whiteSpace=wrap;rounded=0;" vertex="1" parent="1">
          <mxGeometry x="117.5" y="147.5" width="60" height="30" as="geometry" />
        </mxCell>
        <mxCell id="Un5pVBV7CyqhJL8YF-09-23" style="edgeStyle=orthogonalEdgeStyle;rounded=0;orthogonalLoop=1;jettySize=auto;html=1;" edge="1" parent="1" source="Un5pVBV7CyqhJL8YF-09-16" target="Un5pVBV7CyqhJL8YF-09-20">
          <mxGeometry relative="1" as="geometry" />
        </mxCell>
        <mxCell id="Un5pVBV7CyqhJL8YF-09-34" style="edgeStyle=orthogonalEdgeStyle;rounded=0;orthogonalLoop=1;jettySize=auto;html=1;entryX=1;entryY=0.5;entryDx=0;entryDy=0;" edge="1" parent="1" source="Un5pVBV7CyqhJL8YF-09-16" target="Un5pVBV7CyqhJL8YF-09-21">
          <mxGeometry relative="1" as="geometry" />
        </mxCell>
        <mxCell id="Un5pVBV7CyqhJL8YF-09-46" style="edgeStyle=orthogonalEdgeStyle;rounded=0;orthogonalLoop=1;jettySize=auto;html=1;" edge="1" parent="1" source="Un5pVBV7CyqhJL8YF-09-16" target="Un5pVBV7CyqhJL8YF-09-45">
          <mxGeometry relative="1" as="geometry" />
        </mxCell>
        <mxCell id="Un5pVBV7CyqhJL8YF-09-16" value="Springboot/Maven/Java" style="rounded=0;whiteSpace=wrap;html=1;" vertex="1" parent="1">
          <mxGeometry x="640" y="80" width="180" height="125" as="geometry" />
        </mxCell>
        <mxCell id="Un5pVBV7CyqhJL8YF-09-19" value="Controller (Backend)" style="text;html=1;align=center;verticalAlign=middle;whiteSpace=wrap;rounded=0;" vertex="1" parent="1">
          <mxGeometry x="660" y="50" width="130" height="30" as="geometry" />
        </mxCell>
        <mxCell id="Un5pVBV7CyqhJL8YF-09-35" style="edgeStyle=orthogonalEdgeStyle;rounded=0;orthogonalLoop=1;jettySize=auto;html=1;entryX=0.5;entryY=1;entryDx=0;entryDy=0;" edge="1" parent="1" source="Un5pVBV7CyqhJL8YF-09-20" target="Un5pVBV7CyqhJL8YF-09-16">
          <mxGeometry relative="1" as="geometry" />
        </mxCell>
        <mxCell id="Un5pVBV7CyqhJL8YF-09-20" value="GPT4.0/Claude 3.5 Sonnet/DeepSeek" style="rounded=0;whiteSpace=wrap;html=1;" vertex="1" parent="1">
          <mxGeometry x="640" y="395" width="180" height="125" as="geometry" />
        </mxCell>
        <mxCell id="Un5pVBV7CyqhJL8YF-09-31" value="" style="edgeStyle=orthogonalEdgeStyle;rounded=0;orthogonalLoop=1;jettySize=auto;html=1;" edge="1" parent="1" source="Un5pVBV7CyqhJL8YF-09-21" target="Un5pVBV7CyqhJL8YF-09-16">
          <mxGeometry relative="1" as="geometry" />
        </mxCell>
        <mxCell id="Un5pVBV7CyqhJL8YF-09-21" value="OAuth2.0/JWT" style="rounded=0;whiteSpace=wrap;html=1;" vertex="1" parent="1">
          <mxGeometry x="390" y="82.5" width="100" height="125" as="geometry" />
        </mxCell>
        <mxCell id="Un5pVBV7CyqhJL8YF-09-22" value="AI Service Layer" style="text;html=1;align=center;verticalAlign=middle;whiteSpace=wrap;rounded=0;" vertex="1" parent="1">
          <mxGeometry x="740" y="365" width="115" height="30" as="geometry" />
        </mxCell>
        <mxCell id="Un5pVBV7CyqhJL8YF-09-25" value="User" style="shape=umlActor;verticalLabelPosition=bottom;verticalAlign=top;html=1;outlineConnect=0;" vertex="1" parent="1">
          <mxGeometry x="-40" y="202.5" width="30" height="60" as="geometry" />
        </mxCell>
        <mxCell id="Un5pVBV7CyqhJL8YF-09-30" value="Security (Authentication" style="text;html=1;align=center;verticalAlign=middle;whiteSpace=wrap;rounded=0;" vertex="1" parent="1">
          <mxGeometry x="390" y="45" width="90" height="30" as="geometry" />
        </mxCell>
        <mxCell id="Un5pVBV7CyqhJL8YF-09-44" value="" style="endArrow=classic;startArrow=classic;html=1;rounded=0;exitX=1;exitY=0.25;exitDx=0;exitDy=0;" edge="1" parent="1" source="Un5pVBV7CyqhJL8YF-09-49">
          <mxGeometry width="50" height="50" relative="1" as="geometry">
            <mxPoint x="320" y="139" as="sourcePoint" />
            <mxPoint x="390" y="143" as="targetPoint" />
            <Array as="points" />
          </mxGeometry>
        </mxCell>
        <mxCell id="Un5pVBV7CyqhJL8YF-09-47" style="edgeStyle=orthogonalEdgeStyle;rounded=0;orthogonalLoop=1;jettySize=auto;html=1;" edge="1" parent="1" source="Un5pVBV7CyqhJL8YF-09-45" target="Un5pVBV7CyqhJL8YF-09-16">
          <mxGeometry relative="1" as="geometry" />
        </mxCell>
        <mxCell id="Un5pVBV7CyqhJL8YF-09-45" value="PostgreSQL/Firebase" style="shape=datastore;whiteSpace=wrap;html=1;" vertex="1" parent="1">
          <mxGeometry x="930" y="87.5" width="120" height="110" as="geometry" />
        </mxCell>
        <mxCell id="Un5pVBV7CyqhJL8YF-09-48" value="Database" style="text;html=1;align=center;verticalAlign=middle;whiteSpace=wrap;rounded=0;" vertex="1" parent="1">
          <mxGeometry x="930" y="50" width="60" height="30" as="geometry" />
        </mxCell>
        <mxCell id="Un5pVBV7CyqhJL8YF-09-50" value="Controller Server Docker" style="text;html=1;align=center;verticalAlign=middle;whiteSpace=wrap;rounded=0;" vertex="1" parent="1">
          <mxGeometry x="660" y="-25" width="140" height="30" as="geometry" />
        </mxCell>
        <mxCell id="Un5pVBV7CyqhJL8YF-09-52" value="Model Server Docker Container" style="text;html=1;align=center;verticalAlign=middle;whiteSpace=wrap;rounded=0;" vertex="1" parent="1">
          <mxGeometry x="50" y="7.5" width="200" height="30" as="geometry" />
        </mxCell>
        <mxCell id="Un5pVBV7CyqhJL8YF-09-55" value="HTTPS" style="text;html=1;align=center;verticalAlign=middle;resizable=0;points=[];autosize=1;strokeColor=none;fillColor=none;" vertex="1" parent="1">
          <mxGeometry x="540" y="110" width="60" height="30" as="geometry" />
        </mxCell>
        <mxCell id="Un5pVBV7CyqhJL8YF-09-56" value="HTTPS" style="text;html=1;align=center;verticalAlign=middle;resizable=0;points=[];autosize=1;strokeColor=none;fillColor=none;" vertex="1" parent="1">
          <mxGeometry x="730" y="280" width="60" height="30" as="geometry" />
        </mxCell>
        <mxCell id="Un5pVBV7CyqhJL8YF-09-57" value="HTTPS" style="text;html=1;align=center;verticalAlign=middle;resizable=0;points=[];autosize=1;strokeColor=none;fillColor=none;" vertex="1" parent="1">
          <mxGeometry x="855" y="117.5" width="60" height="30" as="geometry" />
        </mxCell>
      </root>
    </mxGraphModel>
  </diagram>
</mxfile>
